<?xml version="1.0" standalone="no"?>
<!DOCTYPE svg PUBLIC "-//W3C//DTD SVG 20010904//EN"
 "http://www.w3.org/TR/2001/REC-SVG-20010904/DTD/svg10.dtd">
<svg version="1.0" xmlns="http://www.w3.org/2000/svg"
 width="1080.000000pt" height="1080.000000pt" viewBox="0 0 1080.000000 1080.000000"
 preserveAspectRatio="xMidYMid meet">

<g transform="translate(0.000000,1080.000000) scale(0.100000,-0.100000)"
fill="#000000" stroke="none">
<path d="M8829 6457 c-171 -343 -530 -691 -1032 -1001 -355 -219 -769 -426
-1602 -801 -764 -344 -1152 -540 -1515 -765 -674 -419 -1043 -867 -1146 -1390
-26 -135 -24 -549 2 -475 2 6 24 46 49 90 90 158 252 355 409 497 424 382 965
650 1946 962 1270 405 1591 526 1955 736 291 167 526 365 688 578 154 202 266
468 313 742 21 126 29 454 15 605 -14 148 -32 278 -40 287 -3 4 -22 -25 -42
-65z"/>
</g>
</svg>
